<?xml version="1.0" encoding="UTF-8" standalone="no"?>
<!-- Created with Inkscape (http://www.inkscape.org/) -->

<svg
   width="125"
   height="100"
   viewBox="0 0 33.072916 26.458333"
   version="1.1"
   id="svg309"
   inkscape:version="1.2.2 (1:1.2.2+202212051550+b0a8486541)"
   sodipodi:docname="favicon.svg"
   inkscape:export-filename="logo/logo.png"
   inkscape:export-xdpi="300"
   inkscape:export-ydpi="300"
   xmlns:inkscape="http://www.inkscape.org/namespaces/inkscape"
   xmlns:sodipodi="http://sodipodi.sourceforge.net/DTD/sodipodi-0.dtd"
   xmlns="http://www.w3.org/2000/svg"
   xmlns:svg="http://www.w3.org/2000/svg">
  <sodipodi:namedview
     id="namedview311"
     pagecolor="#505050"
     bordercolor="#ffffff"
     borderopacity="1"
     inkscape:showpageshadow="0"
     inkscape:pageopacity="0"
     inkscape:pagecheckerboard="1"
     inkscape:deskcolor="#505050"
     inkscape:document-units="px"
     showgrid="false"
     inkscape:zoom="1.07"
     inkscape:cx="190.18692"
     inkscape:cy="136.91589"
     inkscape:window-width="1920"
     inkscape:window-height="1027"
     inkscape:window-x="0"
     inkscape:window-y="0"
     inkscape:window-maximized="1"
     inkscape:current-layer="svg309" />
  <defs
     id="defs306" />
  <g
     inkscape:label="bg"
     inkscape:groupmode="layer"
     id="layer1" />
  <rect
     style="fill:#ffffff;fill-opacity:0.968627;stroke-width:0.0124354;stroke-linecap:round;stroke-linejoin:round"
     id="rect2854"
     width="33.072918"
     height="26.458332"
     x="0"
     y="0" />
  <g
     inkscape:groupmode="layer"
     id="layer2"
     inkscape:label="logo" />
  <path
     id="path1034"
     style="display:inline;opacity:1;fill:#007777;stroke:none;stroke-width:0.0123364px;stroke-linecap:butt;stroke-linejoin:miter;stroke-opacity:1;fill-opacity:1"
     d="m 31.954936,-0.14716302 c -1.156056,0.1875627 -2.240488,1.04023721 -3.051943,1.85700372 -1.621378,2.0185509 -3.046362,4.1696087 -4.648902,6.2040424 -1.388216,1.8694584 -2.735409,3.4174829 -3.99858,5.3754069 -0.263394,0.45717 -0.374907,0.920803 -0.003,1.222334 0.184171,0.120925 0.731614,-0.01245 1.159595,-0.285936 0.683454,-0.525837 1.305177,-1.120975 1.684778,-1.826376 0.171996,-0.359555 0.138749,-0.721455 -0.03644,-0.869006 -0.421427,-0.354884 -1.082735,0.612099 -1.067921,0.613945 0,0 0.42315,-0.08052 0.494664,-0.0078 0.08312,0.08448 -0.682602,0.831506 -0.826461,0.969029 -0.26529,0.279352 -0.753839,0.818865 -0.891104,0.709894 -0.222482,-0.0494 0.145449,-0.507887 0.355104,-0.814412 l 1.29567,-1.557805 c 1.217023,-1.6927053 5.202974,-6.6976608 5.418262,-6.9610423 2.168435,-2.6528634 3.64332,-4.03887884 4.199318,-3.7182189 0.41455,0.2390802 -0.558696,1.9418161 -1.12972,3.261892 -0.211441,0.4888045 -1.993874,3.5502419 -2.599422,4.6135262 -0.516291,0.9242694 -0.846409,1.767255 -2.347689,4.261427 -0.632923,0.958216 -1.228,1.954897 -1.900205,2.885903 -1.038629,0.524844 -1.918825,1.373508 -2.641823,2.209103 -0.946223,1.107437 -1.738303,2.358018 -2.345842,3.561155 -0.291015,0.611982 -1.141856,2.598227 0.233855,2.02846 1.010161,-1.811856 2.19671,-3.566916 3.614386,-5.097722 0.530074,-0.675683 1.883796,-2.145762 1.987022,-2.083872 0.05622,0.09683 -0.771836,1.640721 -0.80435,2.535279 0.0054,1.383655 1.801113,-0.150375 1.97663,0.08125 0.1022,0.187354 -0.59977,1.549767 -0.899109,2.394654 -0.128327,0.399038 -0.511759,1.669054 -0.58966,2.031498 -0.06402,0.297837 0.238846,0.566935 0.47681,0.242391 0.175333,-0.239126 0.287659,-0.735563 0.287659,-0.735563 0,0 -0.350097,0.445618 -0.412659,0.420381 -0.08361,-0.03373 0.169402,-0.604643 0.169402,-0.604643 0,0 1.15002,-1.968706 1.5928,-2.857848 0.295957,-0.634747 1.238506,-2.543314 -0.101963,-2.232652 -0.595705,0.08672 -1.884321,1.187461 -1.188756,-0.03356 0.350982,-0.726513 0.677957,-1.783117 0.0457,-2.265687 1.118912,-1.816353 2.28077,-3.869383 3.264661,-5.6724343 1.265568,-2.4015778 2.298921,-4.0947543 3.53506,-6.364952 C 32.62547,2.4346639 33.18528,1.4526361 33.015839,0.45436563 32.901058,0.07829411 32.342748,-0.17204497 31.954894,-0.14712958 Z M 23.040737,3.5298683 C 22.46751,3.5624862 21.901748,3.8438002 21.563084,4.3437202 19.972253,6.5243637 18.717428,8.9218608 17.417386,11.283703 15.996541,11.239168 14.868993,10.39582 13.963934,9.1215432 13.62945,8.6064928 13.100083,7.9425946 13.100083,7.9425946 c 0,0 0.756187,2.2327514 1.566214,3.0123444 0.641011,0.633643 1.450724,0.996582 2.306723,1.13529 -0.01218,0.02179 -0.02391,0.04385 -0.03614,0.06561 -1.005087,2.006048 -2.237898,3.861074 -3.595294,5.625329 -0.387387,-0.127843 -0.812077,-0.219152 -1.278094,-0.284147 -2.6298027,-0.408453 -5.3970765,-0.485282 -7.9592069,0.325988 -2.0885556,0.616634 -4.01309451,2.374302 -4.08281183,4.669314 -0.18904855,1.736697 0.8821158,3.745811 2.75054943,3.941874 2.3246096,0.217771 4.4930028,-1.072034 6.2278137,-2.49287 2.0030866,-1.72645 3.3613686,-3.306237 4.5916566,-4.947849 0.285143,0.182822 0.52356,0.424215 0.677813,0.75132 0.203165,0.430804 0.559761,1.074554 -0.307099,2.437463 -0.186292,0.251293 -1.272342,2.428445 -1.272342,2.428445 0,0 1.31875,-1.622114 1.79774,-2.179144 0.870627,-1.240481 1.129719,-2.540497 0.653005,-3.283157 -0.250268,-0.421112 -0.57019,-0.734349 -0.948846,-0.974991 0.515275,-0.714922 1.023682,-1.446264 1.563834,-2.213087 0.792794,-1.236916 1.510192,-2.518688 2.217436,-3.806582 0.71117,-0.02398 1.422464,-0.186782 2.068457,-0.4678 1.793118,-0.846666 3.262973,-2.322664 4.234006,-4.0437475 C 24.776658,6.6117507 25.47646,5.2176576 24.563182,4.2079583 24.194662,3.7132678 23.613979,3.4972361 23.040756,3.5298707 Z m 0.149603,0.8927921 c 0.15833,0.00838 0.323945,0.066619 0.49596,0.1905511 0.988337,0.8994887 -0.04287,2.2997605 -0.537154,3.2152513 -1.131493,1.5460111 -2.689008,3.0310972 -4.642837,3.3580352 0.988015,-1.8134555 1.974644,-3.6279802 3.109811,-5.3547618 0.338962,-0.5455917 0.888117,-1.4453897 1.57422,-1.4090758 z m 8.899176,10.9006256 c -0.372505,0.02369 -0.821,0.131767 -1.182613,0.278135 -0.595072,0.292817 -1.159521,0.710278 -1.475153,1.240846 -0.503135,0.862608 -0.444247,1.777525 0.218878,2.538935 0.750724,0.855359 2.698939,0.895595 3.461298,0.490681 -0.953362,-0.199718 -1.652357,-0.336629 -2.278373,-0.722164 -0.317464,-0.221684 -0.53197,-0.403224 -0.69302,-0.790178 -0.147037,-0.330244 -0.227522,-0.774947 0.358573,-1.365563 0.252907,-0.277468 1.158873,-0.8849 1.608987,-0.780542 0.456099,0.177314 0.169173,1.075958 -0.401969,1.823491 0.708233,-0.108662 1.2501,-0.797635 1.499214,-1.232877 0.221215,-0.494281 -0.03089,-1.112703 -0.508789,-1.348144 -0.191671,-0.09808 -0.392522,-0.138175 -0.607033,-0.13262 z M 7.8668362,18.087883 c 1.1934152,-0.03201 2.3988548,0.08434 3.5849078,0.278006 0.386271,0.06307 0.821076,0.130064 1.23819,0.246495 -0.845894,1.051843 -1.730772,2.074512 -2.639886,3.075253 C 8.4073732,23.599919 6.1318546,25.280553 3.5542555,25.56335 2.2766136,25.759851 1.1375278,24.740137 0.97494441,23.508823 0.60197323,21.685321 1.7259825,19.833486 3.3898938,19.098048 4.817903,18.415415 6.3324444,18.129032 7.8668362,18.087883 Z" />
</svg>
