<?xml version="1.0" encoding="UTF-8" standalone="no"?>
<!-- Created with Inkscape (http://www.inkscape.org/) -->

<svg
   version="1.1"
   id="svg1"
   width="400"
   height="340.85373"
   viewBox="0 0 400 340.85372"
   sodipodi:docname="favicon.svg"
   inkscape:version="1.3 (1:1.3+202307231459+0e150ed6c4)"
   xmlns:inkscape="http://www.inkscape.org/namespaces/inkscape"
   xmlns:sodipodi="http://sodipodi.sourceforge.net/DTD/sodipodi-0.dtd"
   xmlns="http://www.w3.org/2000/svg"
   xmlns:svg="http://www.w3.org/2000/svg">
  <defs
     id="defs1" />
  <sodipodi:namedview
     id="namedview1"
     pagecolor="#505050"
     bordercolor="#ffffff"
     borderopacity="1"
     inkscape:showpageshadow="0"
     inkscape:pageopacity="0"
     inkscape:pagecheckerboard="1"
     inkscape:deskcolor="#d1d1d1"
     showgrid="false"
     inkscape:zoom="0.94198464"
     inkscape:cx="58.918158"
     inkscape:cy="109.8744"
     inkscape:window-width="1920"
     inkscape:window-height="1027"
     inkscape:window-x="0"
     inkscape:window-y="0"
     inkscape:window-maximized="1"
     inkscape:current-layer="g1">
    <inkscape:page
       x="0"
       y="0"
       width="400"
       height="340.85373"
       id="page2"
       margin="0"
       bleed="0" />
    <inkscape:page
       x="397.95416"
       y="340.85373"
       width="0"
       height="0"
       id="page3"
       margin="0 0 0 0"
       bleed="0" />
  </sodipodi:namedview>
  <g
     inkscape:groupmode="layer"
     inkscape:label="Image"
     id="g1"
     transform="translate(-590.19531,-289.10428)">
    <rect
       style="fill:#ffffff;stroke:none;stroke-width:0.0479385;stroke-linecap:round;stroke-linejoin:round"
       id="rect1"
       width="400"
       height="340.85373"
       x="590.19531"
       y="289.10428" />
    <path
       style="fill:#000000;stroke-width:1.84179"
       d="m 865.8718,537.78546 c -2.4411,-0.72544 -6.05764,-3.48784 -8.03682,-6.13869 -7.54267,-10.10252 2.54664,-23.0669 25.66218,-32.97542 l 8.76009,-3.75499 -13.73623,-7.53757 c -7.55483,-4.14566 -16.74148,-9.8913 -20.41493,-12.76806 l -6.67888,-5.23049 -18.18529,15.17305 c -10.00187,8.34519 -23.14556,18.45285 -29.20818,22.46145 -12.60663,8.3355 -31.50954,15.73083 -40.17044,15.71575 -21.47601,-0.0374 -38.13638,-15.9913 -42.78362,-40.9695 -0.70675,-3.79869 -1.66503,-6.9067 -2.12953,-6.9067 -0.46448,0 -4.56811,2.56189 -9.11917,5.69311 -19.10455,13.14429 -44.20701,21.24697 -60.58662,19.55645 -17.34249,-1.7899 -24.81269,-10.44671 -24.81269,-28.75408 0,-11.78273 2.48816,-18.13124 8.11013,-20.69278 5.09112,-2.31968 15.35813,-0.92519 20.41553,2.77287 3.24221,2.37075 3.1799,2.87473 -1.52179,12.30982 -6.24048,12.52298 -6.67571,24.61205 -0.99553,27.652 11.37658,6.08856 42.50261,-6.17305 58.43551,-23.01973 l 9.48732,-10.03147 V 435.3139 410.28732 l -31.93726,1.24656 c -33.05755,1.29027 -41.73425,0.52736 -41.73425,-3.66958 0,-1.81589 2.28334,-2.24834 8.7485,-1.6569 9.92217,0.90767 62.82628,-2.31397 64.43623,-3.9239 0.57922,-0.57922 2.91851,-14.14925 5.19844,-30.15562 6.88011,-48.30238 8.561,-51.33026 27.61802,-49.74991 16.15089,1.33936 25.80705,11.45129 18.67745,19.55905 -6.37754,7.2525 -17.9749,36.33141 -22.30351,55.92321 l -1.09708,4.9655 32.70188,-0.84715 c 17.98601,-0.46594 40.98991,-1.16729 51.11974,-1.55856 20.97225,-0.81007 72.04852,1.52564 76.89463,3.5164 1.77273,0.72822 3.22313,2.50459 3.22313,3.94746 0,4.27544 -4.8614,4.86949 -10.36355,1.26645 -4.71369,-3.08661 -9.15461,-3.31068 -54.02111,-2.72577 -26.88689,0.35051 -60.43819,1.17932 -74.5584,1.84179 l -25.67314,1.20447 -1.68069,6.44626 c -2.7652,10.60582 -0.46043,65.59632 3.23807,77.25811 4.13096,13.02544 13.02367,22.19898 21.51744,22.19697 13.78528,-0.004 36.75274,-14.72476 62.80496,-40.25628 14.10883,-13.82691 14.27385,-14.09712 14.27385,-23.38014 0,-7.37477 0.8953,-10.23262 4.16907,-13.30826 5.41965,-5.0914 16.37534,-9.61789 23.27873,-9.61789 12.38307,0 24.12226,8.22301 24.12226,16.89713 0,4.47212 -0.72548,5.20433 -5.15701,5.20433 -6.8439,0 -9.60326,-3.09297 -8.35011,-9.35912 0.90063,-4.50343 0.55456,-5.01462 -2.80136,-4.13703 -4.1442,1.08371 -6.81001,6.69186 -5.97789,12.57525 1.88083,13.29648 26.16941,40.84487 34.00843,38.57282 13.27284,-3.84691 28.12428,-12.74108 38.35007,-22.96689 11.87695,-11.8769 16.23223,-12.91872 16.23223,-3.88291 0,7.33081 -8.74205,14.71281 -30.02962,25.35742 -9.31484,4.65779 -17.20948,8.7155 -17.54358,9.01713 -0.3341,0.30163 0.80763,2.70839 2.53744,5.34835 4.22229,6.44399 2.46357,16.63843 -4.04199,23.42868 -8.72713,9.10915 -36.35947,16.49021 -48.37106,12.92071 z m 23.18866,-9.68016 c 4.3678,-2.11442 9.60235,-5.95582 11.63218,-8.53642 3.80274,-4.83446 4.91923,-12.42754 2.08491,-14.17926 -2.1409,-1.32316 -27.05292,16.26771 -28.54514,20.15626 -2.77888,7.24173 3.07008,8.2513 14.82805,2.55942 z M 642.3891,436.10506 c -6.87921,-4.16863 -2.47441,-19.06267 5.98581,-20.23997 8.67121,-1.20667 14.7343,2.91976 14.7343,10.02792 0,8.009 -13.43146,14.62879 -20.72011,10.21205 z"
       id="path1"
       sodipodi:nodetypes="sscsscssssssssssssscccsssssssscssssssscsscsssssssssssssssssssssssssss" />
    <text
       xml:space="preserve"
       style="font-size:51.5701px;line-height:1.2em;font-family:Jura;-inkscape-font-specification:Jura;fill:#2c89a0;stroke:#ffffff;stroke-width:0.086564;stroke-linecap:round;stroke-linejoin:round"
       x="616.073"
       y="581.87317"
       id="text1"><tspan
         sodipodi:role="line"
         id="tspan1"
         x="616.073"
         y="581.87317"
         style="stroke-width:0.086564">WEB DESIGNER</tspan></text>
  </g>
</svg>
