<?xml version="1.0" encoding="UTF-8" standalone="no"?>
<!-- Created with Inkscape (http://www.inkscape.org/) -->

<svg
   width="125"
   height="100"
   viewBox="0 0 33.072916 26.458333"
   version="1.1"
   id="svg309"
   sodipodi:docname="logo.nofont.svg"
   inkscape:version="1.2.2 (1:1.2.2+202212051550+b0a8486541)"
   xml:space="preserve"
   xmlns:inkscape="http://www.inkscape.org/namespaces/inkscape"
   xmlns:sodipodi="http://sodipodi.sourceforge.net/DTD/sodipodi-0.dtd"
   xmlns="http://www.w3.org/2000/svg"
   xmlns:svg="http://www.w3.org/2000/svg"><sodipodi:namedview
     id="namedview278"
     pagecolor="#505050"
     bordercolor="#ffffff"
     borderopacity="1"
     inkscape:showpageshadow="0"
     inkscape:pageopacity="0"
     inkscape:pagecheckerboard="1"
     inkscape:deskcolor="#505050"
     showgrid="false"
     inkscape:zoom="4.17"
     inkscape:cx="82.374101"
     inkscape:cy="50.119904"
     inkscape:window-width="1920"
     inkscape:window-height="1027"
     inkscape:window-x="0"
     inkscape:window-y="0"
     inkscape:window-maximized="1"
     inkscape:current-layer="svg309" /><defs
     id="defs306" /><g
     id="layer2" /><path
     id="path1034"
     style="display:inline;opacity:1;fill:#00ffff;stroke:none;stroke-width:0.0106333px;stroke-linecap:butt;stroke-linejoin:miter;stroke-opacity:1;fill-opacity:0.29650918"
     d="m 29.431817,1.3618532 c -0.996469,0.1616705 -1.9312,0.8966372 -2.630636,1.6006528 -1.397555,1.739899 -2.625827,3.594013 -4.007142,5.3476022 -1.19658,1.6113883 -2.3578,2.9457148 -3.446595,4.6333558 -0.227034,0.394061 -0.323153,0.793692 -0.0026,1.053595 0.158747,0.104232 0.630617,-0.01074 0.999517,-0.246463 0.589106,-0.453246 1.125003,-0.966229 1.452203,-1.574252 0.148254,-0.30992 0.119595,-0.621861 -0.03141,-0.749044 -0.36325,-0.305893 -0.933268,0.527602 -0.920498,0.529193 0,0 0.364736,-0.0694 0.426378,-0.0067 0.07165,0.07282 -0.588373,0.71672 -0.712372,0.835259 -0.228668,0.240789 -0.649776,0.705824 -0.768092,0.611896 -0.191769,-0.04257 0.125371,-0.437776 0.306085,-0.701986 L 21.213501,11.3522 c 1.049028,-1.4590498 4.484738,-5.7730937 4.670306,-6.0001166 1.869094,-2.2866476 3.140376,-3.4813299 3.619621,-3.2049357 0.357323,0.2060764 -0.481571,1.6737574 -0.973767,2.8116026 -0.182252,0.4213273 -1.718628,3.0601472 -2.240585,3.9766499 -0.445019,0.796678 -0.729564,1.5232928 -2.0236,3.6731558 -0.545551,0.825938 -1.05848,1.685032 -1.637889,2.487517 -0.895253,0.452393 -1.65394,1.183902 -2.277132,1.904147 -0.815602,0.95456 -1.498339,2.032505 -2.02201,3.069554 -0.250841,0.5275 -0.984228,2.239552 0.201573,1.74844 0.870713,-1.561738 1.893464,-3.07452 3.115435,-4.394005 0.456901,-0.582407 1.623748,-1.849549 1.712725,-1.796203 0.04846,0.08346 -0.665288,1.414227 -0.693314,2.185295 0.0047,1.192648 1.552477,-0.129616 1.703765,0.07003 0.08809,0.161492 -0.516974,1.33583 -0.774992,2.064084 -0.110612,0.343953 -0.441111,1.438649 -0.508259,1.751059 -0.05519,0.256722 0.205874,0.488671 0.410988,0.208929 0.151129,-0.206115 0.247948,-0.634022 0.247948,-0.634022 0,0 -0.301768,0.384104 -0.355692,0.36235 -0.07206,-0.02907 0.146017,-0.521174 0.146017,-0.521174 0,0 0.991265,-1.696936 1.37292,-2.463336 0.255102,-0.547122 1.067536,-2.19222 -0.08789,-1.924443 -0.51347,0.07475 -1.624197,1.023536 -1.024652,-0.02893 0.302531,-0.626222 0.584368,-1.536966 0.03939,-1.952918 0.964452,-1.565609 1.96592,-3.335227 2.813988,-4.8893761 C 27.739268,7.7854676 28.62997,6.3260266 29.695467,4.3692195 30.009828,3.587239 30.492359,2.7407757 30.346307,1.880312 30.247372,1.5561554 29.766134,1.3403745 29.43182,1.3618505 Z M 21.748183,4.5312871 C 21.254087,4.5594028 20.766426,4.801882 20.474513,5.2327903 19.103289,7.1124059 18.021686,9.1789392 16.90111,11.21474 15.676406,11.176352 14.70451,10.449424 13.924392,9.3510564 13.636082,8.9071063 13.17979,8.3348563 13.17979,8.3348563 c 0,0 0.651799,1.9245307 1.350006,2.5965047 0.552522,0.546171 1.250457,0.859009 1.98829,0.978567 -0.01049,0.01878 -0.02062,0.03781 -0.03115,0.05655 -0.86634,1.729121 -1.928966,3.328069 -3.09898,4.848777 -0.333914,-0.110198 -0.699976,-0.188902 -1.101661,-0.244925 -2.266771,-0.352067 -4.6520352,-0.418291 -6.8604751,0.280988 -1.8002397,0.53151 -3.4591048,2.04654 -3.519198,4.024736 -0.1629512,1.496953 0.7603438,3.228717 2.3708486,3.397715 2.0037077,0.18771 3.872764,-0.924044 5.3680921,-2.148741 1.7265694,-1.488121 2.8973474,-2.849825 3.9577984,-4.26482 0.245781,0.157586 0.451284,0.365654 0.584245,0.647605 0.175118,0.371332 0.482487,0.926216 -0.264705,2.10098 -0.160576,0.216604 -1.096702,2.093211 -1.096702,2.093211 0,0 1.136703,-1.398189 1.549569,-1.878323 0.750441,-1.069239 0.973768,-2.189794 0.562862,-2.829933 -0.21572,-0.362979 -0.491479,-0.632976 -0.817861,-0.840398 0.444141,-0.61623 0.882367,-1.246613 1.347953,-1.907579 0.683351,-1.066166 1.301716,-2.170995 1.911329,-3.281102 0.612996,-0.02068 1.2261,-0.160998 1.782916,-0.403222 1.545589,-0.729787 2.812538,-2.0020304 3.649524,-3.4855262 0.431977,-0.8882 1.035173,-2.0898449 0.24797,-2.9601597 C 22.742812,4.689368 22.24229,4.5031586 21.748198,4.5312881 Z m 0.12895,0.7695459 c 0.136474,0.00723 0.279226,0.057424 0.427494,0.1642465 0.851901,0.7753184 -0.03695,1.9822889 -0.463001,2.7714005 -0.975295,1.3325911 -2.317803,2.612667 -4.001915,2.894473 0.851624,-1.5631157 1.702055,-3.1271533 2.680516,-4.6155607 0.292169,-0.4702751 0.765517,-1.2458601 1.356906,-1.2145593 z m 7.670686,9.395844 c -0.321084,0.02041 -0.707665,0.113576 -1.019361,0.239739 -0.512924,0.252396 -0.999453,0.612227 -1.271513,1.069553 -0.433681,0.743528 -0.382922,1.532147 0.188663,2.188447 0.647089,0.73728 2.326362,0.771962 2.983481,0.422945 -0.821756,-0.172147 -1.424257,-0.290159 -1.963855,-0.622474 -0.273639,-0.19108 -0.458533,-0.34756 -0.59735,-0.681098 -0.126741,-0.284654 -0.196115,-0.667967 0.309074,-1.177052 0.217994,-0.239164 0.998895,-0.762743 1.386874,-0.672791 0.393135,0.152837 0.145819,0.927426 -0.346481,1.571766 0.610466,-0.09366 1.077529,-0.687526 1.292254,-1.062685 0.190678,-0.426047 -0.02663,-0.959098 -0.438552,-1.162037 -0.165212,-0.08454 -0.338337,-0.119101 -0.523234,-0.114313 z M 8.6689699,17.079633 c 1.0286694,-0.02759 2.0677031,0.07269 3.0900281,0.239629 0.332947,0.05435 0.707729,0.112109 1.067262,0.212467 -0.72912,0.90664 -1.491847,1.788136 -2.27546,2.650728 -1.4159121,1.6483 -3.3773055,3.096931 -5.5990786,3.34069 C 3.8504523,23.692521 2.8686121,22.813574 2.7284725,21.752237 2.4069884,20.180461 3.3758332,18.584263 4.8100492,17.950351 6.040928,17.361952 7.3463937,17.115103 8.6689699,17.079633 Z" /><g
     aria-label="Photography"
     id="text739-3"
     style="font-size:6.16796px;font-family:'Barlow Semi Condensed';-inkscape-font-specification:'Barlow Semi Condensed, ';text-align:center;letter-spacing:2.20945px;text-anchor:middle;fill:#f6efff;stroke-width:0.881135;stroke-linecap:round;stroke-linejoin:round;fill-opacity:1"
     transform="matrix(0.47767822,0,0,0.47767822,0.63472913,0.5323126)"><path
       d="m 8.6003816,27.926245 q 0.4934369,0 0.7956669,0.33307 0.308398,0.326901 0.308398,0.869682 0,0.536612 -0.308398,0.863514 -0.30223,0.320734 -0.7956669,0.320734 h -0.919026 q -0.024672,0 -0.024672,0.02467 v 1.850388 q 0,0.06168 -0.06168,0.06168 H 7.2804382 q -0.06168,0 -0.06168,-0.06168 v -4.200381 q 0,-0.06168 0.06168,-0.06168 z M 8.54487,29.949336 q 0.3269019,0 0.5242766,-0.222047 0.1973747,-0.222047 0.1973747,-0.592124 0,-0.376246 -0.1973747,-0.598292 Q 8.8717719,28.308658 8.54487,28.308658 H 7.6813556 q -0.024672,0 -0.024672,0.02467 v 1.591334 q 0,0.02467 0.024672,0.02467 z"
       id="path479"
       style="fill:#f6efff;fill-opacity:1" /><path
       d="m 13.770442,29.085821 q 0.431757,0 0.678476,0.277558 0.252886,0.271391 0.252886,0.746324 v 2.078602 q 0,0.06168 -0.06168,0.06168 h -0.314566 q -0.06168,0 -0.06168,-0.06168 v -2.016923 q 0,-0.320734 -0.166535,-0.511941 -0.166535,-0.191206 -0.456429,-0.191206 -0.289894,0 -0.468765,0.197374 -0.172703,0.191207 -0.172703,0.518109 v 2.004587 q 0,0.06168 -0.06168,0.06168 H 12.6232 q -0.06168,0 -0.06168,-0.06168 v -4.194213 q 0,-0.06168 0.06168,-0.06168 h 0.314566 q 0.06168,0 0.06168,0.06168 v 1.437135 q 0,0.01234 0.0062,0.0185 0.01234,0.0062 0.02467,-0.0062 0.24055,-0.357742 0.740155,-0.357742 z"
       id="path481"
       style="fill:#f6efff;fill-opacity:1" /><path
       d="m 18.76779,32.299328 q -0.450261,0 -0.740155,-0.24055 -0.289894,-0.246718 -0.351574,-0.659972 -0.03701,-0.308398 -0.03701,-0.715483 0,-0.407086 0.03701,-0.703148 0.05551,-0.407085 0.345406,-0.653803 0.296062,-0.246719 0.746323,-0.246719 0.450261,0 0.740156,0.246719 0.296062,0.246718 0.351573,0.653803 0.03701,0.246719 0.03701,0.703148 0,0.468765 -0.03701,0.715483 -0.05551,0.413254 -0.351573,0.659972 -0.289895,0.24055 -0.740156,0.24055 z m 0,-0.382413 q 0.265223,0 0.444094,-0.160367 0.185038,-0.166535 0.222046,-0.437925 0.02467,-0.228215 0.02467,-0.629132 0,-0.407086 -0.02467,-0.629132 -0.03084,-0.27139 -0.215879,-0.431757 -0.17887,-0.166535 -0.450261,-0.166535 -0.27139,0 -0.450261,0.166535 -0.178871,0.160367 -0.215878,0.431757 -0.02467,0.222046 -0.02467,0.629132 0,0.407085 0.02467,0.629132 0.03084,0.27139 0.20971,0.437925 0.185039,0.160367 0.456429,0.160367 z"
       id="path483"
       style="fill:#f6efff;fill-opacity:1" /><path
       d="m 24.122896,29.412723 q 0,0.06168 -0.06168,0.06168 H 23.47526 q -0.02467,0 -0.02467,0.02467 v 1.850388 q 0,0.289894 0.111023,0.407085 0.117192,0.111023 0.370078,0.111023 h 0.104855 q 0.06168,0 0.06168,0.06168 v 0.259054 q 0,0.06168 -0.06168,0.06168 l -0.191206,0.0062 q -0.400918,0 -0.610629,-0.160367 -0.20971,-0.166535 -0.20971,-0.610628 v -1.986083 q 0,-0.02467 -0.02467,-0.02467 h -0.308398 q -0.06168,0 -0.06168,-0.06168 v -0.222047 q 0,-0.06168 0.06168,-0.06168 h 0.308398 q 0.02467,0 0.02467,-0.02467 v -0.703147 q 0,-0.06168 0.06168,-0.06168 h 0.30223 q 0.06168,0 0.06168,0.06168 v 0.703147 q 0,0.02467 0.02467,0.02467 h 0.585956 q 0.06168,0 0.06168,0.06168 z"
       id="path485"
       style="fill:#f6efff;fill-opacity:1" /><path
       d="m 28.028515,32.299328 q -0.450261,0 -0.740155,-0.24055 -0.289894,-0.246718 -0.351574,-0.659972 -0.03701,-0.308398 -0.03701,-0.715483 0,-0.407086 0.03701,-0.703148 0.05551,-0.407085 0.345406,-0.653803 0.296062,-0.246719 0.746323,-0.246719 0.450261,0 0.740156,0.246719 0.296062,0.246718 0.351573,0.653803 0.03701,0.246719 0.03701,0.703148 0,0.468765 -0.03701,0.715483 -0.05551,0.413254 -0.351573,0.659972 -0.289895,0.24055 -0.740156,0.24055 z m 0,-0.382413 q 0.265223,0 0.444094,-0.160367 0.185038,-0.166535 0.222046,-0.437925 0.02467,-0.228215 0.02467,-0.629132 0,-0.407086 -0.02467,-0.629132 -0.03084,-0.27139 -0.215879,-0.431757 -0.17887,-0.166535 -0.450261,-0.166535 -0.27139,0 -0.450261,0.166535 -0.178871,0.160367 -0.215878,0.431757 -0.02467,0.222046 -0.02467,0.629132 0,0.407085 0.02467,0.629132 0.03084,0.27139 0.20971,0.437925 0.185039,0.160367 0.456429,0.160367 z"
       id="path487"
       style="fill:#f6efff;fill-opacity:1" /><path
       d="m 33.827714,29.190676 q 0,-0.06168 0.06168,-0.06168 h 0.314566 q 0.06168,0 0.06168,0.06168 v 2.972957 q 0,1.393959 -1.523486,1.326112 -0.06168,-0.0062 -0.06168,-0.06785 l 0.0062,-0.277558 q 0,-0.03084 0.0185,-0.04934 0.0185,-0.01234 0.04318,-0.0062 0.579788,0.0185 0.826507,-0.215878 0.252886,-0.228215 0.252886,-0.733988 v -0.203542 q 0,-0.01234 -0.01234,-0.0185 -0.0062,-0.0062 -0.0185,0.0062 -0.24055,0.345406 -0.715483,0.345406 -0.394749,0 -0.659972,-0.234383 -0.265222,-0.24055 -0.326902,-0.647636 -0.03701,-0.27139 -0.03701,-0.696979 0,-0.462597 0.04317,-0.727819 0.04934,-0.400918 0.308398,-0.641468 0.265223,-0.240551 0.659972,-0.240551 0.481101,0 0.727819,0.339238 0.01234,0.01234 0.0185,0.01234 0.01234,-0.0062 0.01234,-0.0185 z m -0.0185,2.109443 q 0.0185,-0.240551 0.0185,-0.616796 0,-0.370078 -0.0185,-0.629132 -0.02467,-0.259054 -0.197374,-0.425589 -0.166535,-0.166535 -0.431758,-0.166535 -0.265222,0 -0.444093,0.166535 -0.172703,0.166535 -0.20971,0.425589 -0.02467,0.222046 -0.02467,0.629132 0,0.308398 0.02467,0.616796 0.03084,0.259054 0.20971,0.425589 0.178871,0.166535 0.444093,0.166535 0.265223,0 0.431758,-0.166535 0.172702,-0.166535 0.197374,-0.425589 z"
       id="path489"
       style="fill:#f6efff;fill-opacity:1" /><path
       d="m 38.442664,29.098157 q 0.185039,0 0.314566,0.07402 0.04318,0.0185 0.03084,0.07401 l -0.07402,0.320734 q -0.0062,0.06168 -0.07401,0.03701 -0.09869,-0.04318 -0.215879,-0.04318 l -0.07402,0.0062 q -0.271391,0.0062 -0.450261,0.234383 -0.178871,0.228214 -0.178871,0.555116 v 1.831884 q 0,0.06168 -0.06168,0.06168 h -0.314566 q -0.06168,0 -0.06168,-0.06168 v -2.997629 q 0,-0.06168 0.06168,-0.06168 h 0.314566 q 0.06168,0 0.06168,0.06168 v 0.400918 q 0,0.0185 0.0062,0.0185 0.01234,0 0.0185,-0.01234 0.104855,-0.234383 0.277558,-0.36391 0.178871,-0.135695 0.419421,-0.135695 z"
       id="path491"
       style="fill:#f6efff;fill-opacity:1" /><path
       d="m 42.508656,29.079653 q 0.493436,0 0.770995,0.283726 0.283726,0.283727 0.283726,0.752492 v 2.072434 q 0,0.06168 -0.06168,0.06168 h -0.314566 q -0.06168,0 -0.06168,-0.06168 v -0.222046 q 0,-0.01234 -0.01234,-0.0185 -0.0062,-0.0062 -0.0185,0.0062 -0.135695,0.172703 -0.345406,0.259054 -0.209711,0.08635 -0.468765,0.08635 -0.388582,0 -0.66614,-0.20971 -0.27139,-0.209711 -0.27139,-0.684644 0,-0.493437 0.314566,-0.746323 0.320734,-0.259054 0.869682,-0.259054 h 0.573621 q 0.02467,0 0.02467,-0.02467 v -0.234383 q 0,-0.314566 -0.160367,-0.493436 -0.154199,-0.185039 -0.462597,-0.185039 -0.240551,0 -0.400918,0.123359 -0.160367,0.117191 -0.191207,0.314566 -0.0062,0.05551 -0.06785,0.05551 L 41.503278,29.937 q -0.03084,0 -0.04934,-0.0185 -0.01234,-0.0185 -0.0062,-0.04318 0.04318,-0.357742 0.33307,-0.57362 0.296062,-0.222047 0.72782,-0.222047 z m -0.141864,2.837262 q 0.308398,0 0.530445,-0.166535 0.228215,-0.172703 0.228215,-0.474933 v -0.499605 q 0,-0.02467 -0.02467,-0.02467 h -0.542781 q -0.351574,0 -0.561284,0.166535 -0.209711,0.160367 -0.209711,0.462597 0,0.271391 0.160367,0.407086 0.160367,0.129527 0.419421,0.129527 z"
       id="path493"
       style="fill:#f6efff;fill-opacity:1" /><path
       d="m 48.751952,29.949336 q 0.08018,0.326901 0.08018,0.709315 0,0.419421 -0.06168,0.733987 -0.09869,0.462597 -0.351573,0.684644 -0.246719,0.215878 -0.659972,0.215878 -0.252886,0 -0.419421,-0.08635 -0.160367,-0.08635 -0.259055,-0.252886 -0.0062,-0.0185 -0.0185,-0.01234 -0.01234,0 -0.01234,0.0185 v 1.424798 q 0,0.06168 -0.06168,0.06168 h -0.314566 q -0.06168,0 -0.06168,-0.06168 v -4.194213 q 0,-0.06168 0.06168,-0.06168 h 0.314566 q 0.06168,0 0.06168,0.06168 v 0.234383 q 0,0.0185 0.01234,0.02467 0.01234,0 0.0185,-0.0185 0.222047,-0.351574 0.709316,-0.351574 0.388581,0 0.616796,0.209711 0.234382,0.203543 0.345406,0.659972 z m -0.481101,1.554326 q 0.117191,-0.314566 0.117191,-0.814171 0,-0.493437 -0.09252,-0.770995 -0.08018,-0.228215 -0.222047,-0.345406 -0.141863,-0.117191 -0.370078,-0.117191 -0.215878,0 -0.351573,0.117191 -0.129528,0.117191 -0.203543,0.339238 -0.09252,0.277558 -0.09252,0.777163 0,0.511941 0.104855,0.795667 0.07402,0.20971 0.197375,0.320734 0.123359,0.111023 0.333069,0.111023 0.407086,0 0.579789,-0.413253 z"
       id="path495"
       style="fill:#f6efff;fill-opacity:1" /><path
       d="m 53.002985,29.085821 q 0.431757,0 0.678475,0.277558 0.252887,0.271391 0.252887,0.746324 v 2.078602 q 0,0.06168 -0.06168,0.06168 h -0.314566 q -0.06168,0 -0.06168,-0.06168 v -2.016923 q 0,-0.320734 -0.166535,-0.511941 -0.166535,-0.191206 -0.456429,-0.191206 -0.289894,0 -0.468765,0.197374 -0.172702,0.191207 -0.172702,0.518109 v 2.004587 q 0,0.06168 -0.06168,0.06168 h -0.314566 q -0.06168,0 -0.06168,-0.06168 v -4.194213 q 0,-0.06168 0.06168,-0.06168 h 0.314566 q 0.06168,0 0.06168,0.06168 v 1.437135 q 0,0.01234 0.0062,0.0185 0.01234,0.0062 0.02467,-0.0062 0.240551,-0.357742 0.740156,-0.357742 z"
       id="path497"
       style="fill:#f6efff;fill-opacity:1" /><path
       d="m 56.822259,33.483577 q -0.04318,0 -0.04318,-0.06168 v -0.246718 q 0,-0.06168 0.06168,-0.06168 h 0.01234 q 0.215878,-0.0062 0.333069,-0.07401 0.12336,-0.06785 0.203543,-0.240551 0.08635,-0.172703 0.172703,-0.530444 0.0062,-0.0062 0,-0.0185 0,-0.0185 0,-0.0185 l -0.919026,-3.034637 -0.0062,-0.0185 q 0,-0.04934 0.06168,-0.04934 h 0.333069 q 0.05551,0 0.06785,0.05551 l 0.672308,2.461016 q 0.0062,0.01234 0.01234,0.01234 0.01234,0 0.0185,-0.01234 l 0.672307,-2.461016 q 0.01234,-0.05551 0.06785,-0.05551 h 0.326902 q 0.03084,0 0.04317,0.0185 0.0185,0.0185 0.01234,0.04934 l -1.005377,3.324531 q -0.123359,0.413253 -0.246719,0.610628 -0.117191,0.197375 -0.30223,0.27139 -0.178871,0.08018 -0.51194,0.08018 z"
       id="path499"
       style="fill:#f6efff;fill-opacity:1" /></g><g
     aria-label="Linda McBride"
     id="text872"
     style="font-size:6.94591px;font-family:Wanchy;-inkscape-font-specification:Wanchy;text-align:center;text-anchor:middle;fill:#f6eeff;fill-opacity:1;stroke-width:14.1039;stroke-linecap:round;stroke-linejoin:round"
     transform="matrix(0.72792361,0,0,0.72792361,-7.6172684,-5.8151569)"><path
       d="m 14.732299,25.163916 -0.118081,0.819617 h -3.160389 v -0.05557 l 0.111135,-0.04168 q 0.131972,-0.05557 0.208377,-0.166701 0.0764,-0.118081 0.0764,-0.256999 V 22.27441 q 0,-0.138918 -0.0764,-0.250052 -0.0764,-0.118081 -0.208377,-0.173648 l -0.111135,-0.04168 v -0.05557 h 1.403074 v 0.05557 l -0.111135,0.04168 q -0.131972,0.05557 -0.208377,0.173648 -0.0764,0.111134 -0.0764,0.250052 v 3.39655 h 1.555884 q 0.201431,0 0.333404,-0.15281 l 0.326457,-0.368133 z"
       style="-inkscape-font-specification:'Giveny Free';fill:#f6eeff;fill-opacity:1"
       id="path430" /><path
       d="m 16.447929,22.718956 q -0.104189,0.04168 -0.166702,0.131972 -0.06251,0.0903 -0.06251,0.201431 v 2.521366 q 0,0.111134 0.06251,0.201431 0.06251,0.0903 0.166702,0.131972 l 0.0903,0.03473 v 0.04168 H 15.42688 v -0.04168 l 0.0903,-0.03473 q 0.104188,-0.04168 0.166702,-0.131972 0.06251,-0.0903 0.06251,-0.201431 v -2.521366 q 0,-0.111134 -0.06251,-0.201431 -0.06251,-0.0903 -0.166702,-0.131972 l -0.0903,-0.03473 v -0.04167 h 1.111346 v 0.04167 l -0.0903,0.03473 z"
       style="-inkscape-font-specification:'Giveny Free';fill:#f6eeff;fill-opacity:1"
       id="path432" /><path
       d="m 20.379302,22.718956 q -0.104189,0.04168 -0.166702,0.131972 -0.06251,0.0903 -0.06251,0.201431 v 2.521366 q 0,0.111134 0.06251,0.201431 0.06251,0.0903 0.166702,0.131972 l 0.0903,0.03473 v 0.04168 H 19.913929 L 17.78848,23.031526 v 2.549149 q 0,0.111135 0.06251,0.201432 0.06251,0.0903 0.166701,0.131972 l 0.0903,0.03473 v 0.04168 H 17.23975 v -0.04168 l 0.0903,-0.03473 q 0.104189,-0.04167 0.166702,-0.131972 0.06251,-0.0903 0.06251,-0.201432 V 23.05931 q 0,-0.111134 -0.06251,-0.201431 -0.06251,-0.0903 -0.166702,-0.131973 l -0.0903,-0.03473 v -0.04168 h 0.875185 l 1.805937,2.507474 v -2.104611 q 0,-0.111134 -0.06251,-0.201431 -0.06251,-0.0903 -0.166702,-0.131972 l -0.0903,-0.03473 v -0.04167 h 0.868239 v 0.04167 l -0.0903,0.03473 z"
       style="-inkscape-font-specification:'Giveny Free';fill:#f6eeff;fill-opacity:1"
       id="path434" /><path
       d="m 22.650605,22.642551 q 0.430647,0 0.736267,0.131972 0.312566,0.125026 0.507051,0.354241 0.201431,0.222269 0.291728,0.527889 0.09724,0.30562 0.09724,0.652916 0,0.354241 -0.09724,0.659861 -0.0903,0.30562 -0.291728,0.534835 -0.194485,0.22227 -0.507051,0.354242 -0.30562,0.125026 -0.736267,0.125026 h -1.493371 v -0.04168 l 0.0903,-0.03473 q 0.104189,-0.04168 0.166702,-0.131972 0.06251,-0.0903 0.06251,-0.201431 v -2.521366 q 0,-0.111134 -0.06251,-0.201431 -0.06251,-0.0903 -0.166702,-0.131972 l -0.0903,-0.03473 v -0.04167 z m 0,3.090929 q 0.576511,0 0.861293,-0.368133 0.291728,-0.375079 0.291728,-1.055778 0,-0.687645 -0.291728,-1.055778 -0.284782,-0.37508 -0.861293,-0.37508 h -0.694591 v 2.854769 z"
       style="-inkscape-font-specification:'Giveny Free';fill:#f6eeff;fill-opacity:1"
       id="path436" /><path
       d="m 27.846135,25.92102 v 0.04168 h -1.229426 v -0.04168 l 0.201431,-0.0764 q 0.06946,-0.02778 0.09724,-0.0903 0.03473,-0.06946 0.0069,-0.138918 l -0.354242,-0.91686 h -1.118291 l -0.361187,0.930752 q -0.02778,0.06946 0,0.138918 0.03473,0.06251 0.104188,0.0903 l 0.173648,0.06946 v 0.04167 h -0.902968 v -0.04167 l 0.04167,-0.01389 q 0.263945,-0.09724 0.361188,-0.361187 l 1.125237,-2.910336 h 0.256999 l 1.111345,2.882552 q 0.09724,0.263945 0.361188,0.361187 z m -1.37529,-1.465587 -0.465376,-1.201642 -0.465376,1.201642 z"
       style="-inkscape-font-specification:'Giveny Free';fill:#f6eeff;fill-opacity:1"
       id="path438" /><path
       d="m 35.028198,21.857663 q -0.131972,0.05557 -0.208377,0.173647 -0.0764,0.111135 -0.0764,0.250053 v 3.188173 q 0,0.138918 0.0764,0.256999 0.07641,0.111134 0.208377,0.166701 l 0.111135,0.04168 v 0.05557 h -1.403074 v -0.05557 l 0.111134,-0.04168 q 0.131973,-0.05557 0.208378,-0.166701 0.07641,-0.118081 0.07641,-0.256999 v -3.222902 l -1.528101,1.812882 -1.5281,-1.812882 v 3.222902 q 0,0.138918 0.07641,0.256999 0.0764,0.111134 0.208377,0.166701 l 0.111135,0.04168 v 0.05557 h -1.097454 v -0.05557 l 0.111135,-0.04168 q 0.131972,-0.05557 0.208377,-0.166701 0.0764,-0.118081 0.0764,-0.256999 v -3.188173 q 0,-0.138918 -0.0764,-0.250053 -0.07641,-0.11808 -0.208377,-0.173647 l -0.111135,-0.04168 v -0.05557 h 1.097454 v 0.0069 l 1.333615,1.576721 1.333614,-1.576721 v -0.0069 h 1.007157 v 0.05557 l -0.111134,0.04168 z"
       style="-inkscape-font-specification:'Giveny Free';fill:#f6eeff;fill-opacity:1"
       id="path440" /><path
       d="m 37.632909,22.892603 q -0.291728,0 -0.534835,0.111135 -0.243107,0.111134 -0.416754,0.30562 -0.166702,0.194485 -0.263945,0.45843 -0.0903,0.256999 -0.0903,0.548727 0,0.291728 0.0903,0.555673 0.09724,0.256998 0.263945,0.451484 0.173647,0.194485 0.416754,0.30562 0.243107,0.111134 0.534835,0.111134 0.250053,0 0.486214,-0.08335 0.236161,-0.0903 0.430646,-0.250052 l 0.15281,0.180593 q -0.222269,0.18754 -0.500105,0.291729 -0.277837,0.09724 -0.576511,0.09724 -0.409808,0 -0.743212,-0.131972 -0.326458,-0.131972 -0.562619,-0.354241 -0.229215,-0.229215 -0.354241,-0.52789 -0.125027,-0.30562 -0.125027,-0.652915 0,-0.34035 0.125027,-0.64597 0.125026,-0.30562 0.354241,-0.527889 0.236161,-0.229215 0.562619,-0.361187 0.333404,-0.131972 0.743212,-0.131972 0.500106,0 0.91686,0.277836 l 0.07641,-0.159756 0.04168,-0.0069 0.0903,0.64597 -0.04168,0.0069 q -0.111134,-0.138919 -0.263944,-0.256999 -0.138918,-0.09724 -0.34035,-0.180594 -0.194485,-0.08335 -0.479268,-0.08335 z"
       style="-inkscape-font-specification:'Giveny Free';fill:#f6eeff;fill-opacity:1"
       id="path442" /><path
       d="m 41.925474,23.712221 q 0.437592,0.125026 0.673753,0.402862 0.236161,0.277837 0.236161,0.687646 0,0.562618 -0.437592,0.88213 -0.430647,0.312566 -1.208589,0.312566 h -1.743423 v -0.05557 l 0.111134,-0.04168 q 0.131973,-0.05557 0.208378,-0.166702 0.07641,-0.11808 0.07641,-0.256998 v -3.188173 q 0,-0.138918 -0.07641,-0.250053 -0.07641,-0.11808 -0.208378,-0.173647 l -0.111134,-0.04168 v -0.05557 h 1.576721 q 0.298675,0 0.562619,0.04168 0.270891,0.03473 0.465376,0.15281 0.194486,0.111135 0.30562,0.319512 0.118081,0.208377 0.118081,0.548727 0,0.291728 -0.145864,0.507052 -0.145865,0.208377 -0.395917,0.347295 z m -1.479479,-1.625343 v 1.521154 h 0.569565 q 0.138918,0 0.284782,-0.02084 0.15281,-0.02778 0.27089,-0.104188 0.125027,-0.08335 0.201432,-0.229215 0.08335,-0.15281 0.08335,-0.402863 0,-0.250053 -0.08335,-0.395917 -0.07641,-0.15281 -0.201432,-0.229215 -0.11808,-0.08335 -0.27089,-0.104189 -0.145864,-0.02778 -0.284782,-0.02778 z m 0.72932,3.604927 q 0.180594,0 0.368134,-0.03473 0.187539,-0.03473 0.333403,-0.131972 0.15281,-0.09724 0.243107,-0.27089 0.09724,-0.173648 0.09724,-0.451484 0,-0.479268 -0.236161,-0.6807 -0.236161,-0.208377 -0.79878,-0.208377 h -0.736266 v 1.778153 h 0.736266 z"
       style="-inkscape-font-specification:'Giveny Free';fill:#f6eeff;fill-opacity:1"
       id="path444" /><path
       d="m 46.231925,25.914074 v 0.04168 h -0.777942 q -0.02778,-0.05557 -0.06946,-0.15281 -0.03473,-0.08335 -0.09724,-0.215324 -0.06251,-0.138918 -0.15281,-0.340349 -0.07641,-0.166702 -0.145864,-0.326458 -0.06946,-0.159756 -0.138919,-0.277836 -0.06251,-0.118081 -0.138918,-0.18754 -0.0764,-0.0764 -0.159756,-0.0764 h -0.395917 v 1.173859 q 0,0.111134 0.06251,0.201431 0.06251,0.0903 0.166701,0.131972 l 0.0903,0.03473 v 0.04168 h -1.111345 v -0.04168 l 0.0903,-0.03473 q 0.104188,-0.04167 0.166701,-0.131972 0.06251,-0.0903 0.06251,-0.201431 V 23.03153 q 0,-0.111134 -0.06251,-0.201431 -0.06251,-0.0903 -0.166701,-0.131972 l -0.0903,-0.03473 v -0.04168 h 1.250264 q 0.354241,0 0.57651,0.06946 0.222269,0.06946 0.347296,0.194485 0.131972,0.118081 0.180593,0.277837 0.04862,0.159756 0.04862,0.340349 0,0.138919 -0.02778,0.263945 -0.02778,0.125026 -0.09724,0.236161 -0.06251,0.104189 -0.180593,0.187539 -0.118081,0.08335 -0.298675,0.131973 0.131973,0.15281 0.229215,0.347295 0.09724,0.194486 0.18754,0.388971 0.06251,0.145864 0.11808,0.277837 0.05557,0.125026 0.104189,0.229215 0.104189,0.236161 0.347296,0.333403 z m -1.340561,-1.812882 q 0.159756,-0.04862 0.27089,-0.180594 0.118081,-0.131972 0.118081,-0.416755 0,-0.208377 -0.06946,-0.333403 -0.06251,-0.125027 -0.159756,-0.194486 -0.09724,-0.06946 -0.215323,-0.0903 -0.118081,-0.02084 -0.229215,-0.02084 h -0.451485 v 1.271101 h 0.451485 q 0.06946,0 0.138918,-0.0069 0.07641,-0.0069 0.15281,-0.02778 z"
       style="-inkscape-font-specification:'Giveny Free';fill:#f6eeff;fill-opacity:1"
       id="path446" /><path
       d="m 47.773904,22.718956 q -0.104188,0.04168 -0.166701,0.131972 -0.06251,0.0903 -0.06251,0.201431 v 2.521366 q 0,0.111134 0.06251,0.201431 0.06251,0.0903 0.166701,0.131972 l 0.0903,0.03473 v 0.04168 h -1.111345 v -0.04168 l 0.0903,-0.03473 q 0.104189,-0.04168 0.166702,-0.131972 0.06251,-0.0903 0.06251,-0.201431 v -2.521366 q 0,-0.111134 -0.06251,-0.201431 -0.06251,-0.0903 -0.166702,-0.131972 l -0.0903,-0.03473 v -0.04167 h 1.111345 v 0.04167 z"
       style="-inkscape-font-specification:'Giveny Free';fill:#f6eeff;fill-opacity:1"
       id="path448" /><path
       d="m 50.05215,22.642551 q 0.430646,0 0.736266,0.131972 0.312566,0.125026 0.507052,0.354241 0.201431,0.222269 0.291728,0.527889 0.09724,0.30562 0.09724,0.652916 0,0.354241 -0.09724,0.659861 -0.0903,0.30562 -0.291728,0.534835 -0.194486,0.22227 -0.507052,0.354242 -0.30562,0.125026 -0.736266,0.125026 h -1.493371 v -0.04168 l 0.0903,-0.03473 q 0.104189,-0.04168 0.166702,-0.131972 0.06251,-0.0903 0.06251,-0.201431 v -2.521366 q 0,-0.111134 -0.06251,-0.201431 -0.06251,-0.0903 -0.166702,-0.131972 l -0.0903,-0.03473 v -0.04167 z m 0,3.090929 q 0.57651,0 0.861293,-0.368133 0.291728,-0.375079 0.291728,-1.055778 0,-0.687645 -0.291728,-1.055778 -0.284783,-0.37508 -0.861293,-0.37508 h -0.694591 v 2.854769 z"
       style="-inkscape-font-specification:'Giveny Free';fill:#f6eeff;fill-opacity:1"
       id="path450" /><path
       d="m 54.692002,25.337564 -0.09724,0.645969 h -2.389393 v -0.04168 l 0.0903,-0.03473 q 0.104189,-0.04168 0.166702,-0.131972 0.06251,-0.0903 0.06251,-0.201431 v -2.521366 q 0,-0.111134 -0.06251,-0.201431 -0.06251,-0.0903 -0.166702,-0.131972 l -0.0903,-0.03473 v -0.04167 h 2.194908 l 0.0903,0.645969 -0.04168,0.0069 -0.256998,-0.291728 Q 54.087708,22.885657 53.921006,22.885657 H 52.9972 v 1.215535 h 0.500106 q 0.111134,0 0.201431,-0.06251 0.0903,-0.06251 0.131972,-0.166701 v -0.0069 h 0.04168 v 0.708482 h -0.04168 v -0.0069 q -0.04167,-0.104189 -0.131972,-0.166702 -0.0903,-0.06251 -0.201431,-0.06251 H 52.9972 v 1.396127 h 1.125238 q 0.166701,0 0.27089,-0.11808 l 0.256999,-0.291728 z"
       style="-inkscape-font-specification:'Giveny Free';fill:#f6eeff;fill-opacity:1"
       id="path452" /></g></svg>
